<svg id="visual" viewBox="0 0 960 540" width="960" height="540" xmlns="http://www.w3.org/2000/svg" xmlns:xlink="http://www.w3.org/1999/xlink" version="1.1"><rect x="0" y="0" width="960" height="540" fill="#9c5e00"></rect><defs><linearGradient id="grad1_0" x1="43.8%" y1="0%" x2="100%" y2="100%"><stop offset="14.444444444444446%" stop-color="#fbae3c" stop-opacity="1"></stop><stop offset="85.55555555555554%" stop-color="#fbae3c" stop-opacity="1"></stop></linearGradient></defs><defs><linearGradient id="grad1_1" x1="43.8%" y1="0%" x2="100%" y2="100%"><stop offset="14.444444444444446%" stop-color="#fbae3c" stop-opacity="1"></stop><stop offset="85.55555555555554%" stop-color="#db922a" stop-opacity="1"></stop></linearGradient></defs><defs><linearGradient id="grad1_2" x1="43.8%" y1="0%" x2="100%" y2="100%"><stop offset="14.444444444444446%" stop-color="#bb7816" stop-opacity="1"></stop><stop offset="85.55555555555554%" stop-color="#db922a" stop-opacity="1"></stop></linearGradient></defs><defs><linearGradient id="grad1_3" x1="43.8%" y1="0%" x2="100%" y2="100%"><stop offset="14.444444444444446%" stop-color="#bb7816" stop-opacity="1"></stop><stop offset="85.55555555555554%" stop-color="#9c5e00" stop-opacity="1"></stop></linearGradient></defs><defs><linearGradient id="grad2_0" x1="0%" y1="0%" x2="56.3%" y2="100%"><stop offset="14.444444444444446%" stop-color="#fbae3c" stop-opacity="1"></stop><stop offset="85.55555555555554%" stop-color="#fbae3c" stop-opacity="1"></stop></linearGradient></defs><defs><linearGradient id="grad2_1" x1="0%" y1="0%" x2="56.3%" y2="100%"><stop offset="14.444444444444446%" stop-color="#db922a" stop-opacity="1"></stop><stop offset="85.55555555555554%" stop-color="#fbae3c" stop-opacity="1"></stop></linearGradient></defs><defs><linearGradient id="grad2_2" x1="0%" y1="0%" x2="56.3%" y2="100%"><stop offset="14.444444444444446%" stop-color="#db922a" stop-opacity="1"></stop><stop offset="85.55555555555554%" stop-color="#bb7816" stop-opacity="1"></stop></linearGradient></defs><defs><linearGradient id="grad2_3" x1="0%" y1="0%" x2="56.3%" y2="100%"><stop offset="14.444444444444446%" stop-color="#9c5e00" stop-opacity="1"></stop><stop offset="85.55555555555554%" stop-color="#bb7816" stop-opacity="1"></stop></linearGradient></defs><g transform="translate(960, 0)"><path d="M0 405C-56.3 402.6 -112.7 400.2 -155 374.2C-197.3 348.2 -225.5 298.6 -258.8 258.8C-292.1 219 -330.5 188.8 -355.7 147.3C-380.9 105.8 -393 52.9 -405 0L0 0Z" fill="#ab6b0b"></path><path d="M0 303.8C-42.3 301.9 -84.5 300.1 -116.2 280.6C-148 261.1 -169.1 224 -194.1 194.1C-219.1 164.2 -247.9 141.6 -266.8 110.5C-285.7 79.4 -294.7 39.7 -303.7 0L0 0Z" fill="#cb8520"></path><path d="M0 202.5C-28.2 201.3 -56.3 200.1 -77.5 187.1C-98.6 174.1 -112.7 149.3 -129.4 129.4C-146.1 109.5 -165.2 94.4 -177.8 73.7C-190.5 52.9 -196.5 26.5 -202.5 0L0 0Z" fill="#eba033"></path><path d="M0 101.3C-14.1 100.6 -28.2 100 -38.7 93.5C-49.3 87 -56.4 74.7 -64.7 64.7C-73 54.7 -82.6 47.2 -88.9 36.8C-95.2 26.5 -98.2 13.2 -101.2 0L0 0Z" fill="#fbae3c"></path></g><g transform="translate(0, 540)"><path d="M0 -405C56.8 -403.8 113.6 -402.5 155 -374.2C196.4 -345.8 222.5 -290.3 246.8 -246.8C271.1 -203.2 293.6 -171.6 319.7 -132.4C345.7 -93.3 375.4 -46.6 405 0L0 0Z" fill="#ab6b0b"></path><path d="M0 -303.7C42.6 -302.8 85.2 -301.9 116.2 -280.6C147.3 -259.4 166.9 -217.8 185.1 -185.1C203.3 -152.4 220.2 -128.7 239.7 -99.3C259.3 -69.9 281.5 -35 303.8 0L0 0Z" fill="#cb8520"></path><path d="M0 -202.5C28.4 -201.9 56.8 -201.3 77.5 -187.1C98.2 -172.9 111.2 -145.2 123.4 -123.4C135.5 -101.6 146.8 -85.8 159.8 -66.2C172.9 -46.6 187.7 -23.3 202.5 0L0 0Z" fill="#eba033"></path><path d="M0 -101.2C14.2 -100.9 28.4 -100.6 38.7 -93.5C49.1 -86.5 55.6 -72.6 61.7 -61.7C67.8 -50.8 73.4 -42.9 79.9 -33.1C86.4 -23.3 93.8 -11.7 101.3 0L0 0Z" fill="#fbae3c"></path></g></svg>