<svg id="visual" viewBox="0 0 960 540" width="960" height="540" xmlns="http://www.w3.org/2000/svg" xmlns:xlink="http://www.w3.org/1999/xlink" version="1.1"><rect x="0" y="0" width="960" height="540" fill="#9c5e00"></rect><defs><linearGradient id="grad1_0" x1="43.8%" y1="100%" x2="100%" y2="0%"><stop offset="14.444444444444446%" stop-color="#fbae3c" stop-opacity="1"></stop><stop offset="85.55555555555554%" stop-color="#fbae3c" stop-opacity="1"></stop></linearGradient></defs><defs><linearGradient id="grad1_1" x1="43.8%" y1="100%" x2="100%" y2="0%"><stop offset="14.444444444444446%" stop-color="#fbae3c" stop-opacity="1"></stop><stop offset="85.55555555555554%" stop-color="#db922a" stop-opacity="1"></stop></linearGradient></defs><defs><linearGradient id="grad1_2" x1="43.8%" y1="100%" x2="100%" y2="0%"><stop offset="14.444444444444446%" stop-color="#bb7816" stop-opacity="1"></stop><stop offset="85.55555555555554%" stop-color="#db922a" stop-opacity="1"></stop></linearGradient></defs><defs><linearGradient id="grad1_3" x1="43.8%" y1="100%" x2="100%" y2="0%"><stop offset="14.444444444444446%" stop-color="#bb7816" stop-opacity="1"></stop><stop offset="85.55555555555554%" stop-color="#9c5e00" stop-opacity="1"></stop></linearGradient></defs><defs><linearGradient id="grad2_0" x1="0%" y1="100%" x2="56.3%" y2="0%"><stop offset="14.444444444444446%" stop-color="#fbae3c" stop-opacity="1"></stop><stop offset="85.55555555555554%" stop-color="#fbae3c" stop-opacity="1"></stop></linearGradient></defs><defs><linearGradient id="grad2_1" x1="0%" y1="100%" x2="56.3%" y2="0%"><stop offset="14.444444444444446%" stop-color="#db922a" stop-opacity="1"></stop><stop offset="85.55555555555554%" stop-color="#fbae3c" stop-opacity="1"></stop></linearGradient></defs><defs><linearGradient id="grad2_2" x1="0%" y1="100%" x2="56.3%" y2="0%"><stop offset="14.444444444444446%" stop-color="#db922a" stop-opacity="1"></stop><stop offset="85.55555555555554%" stop-color="#bb7816" stop-opacity="1"></stop></linearGradient></defs><defs><linearGradient id="grad2_3" x1="0%" y1="100%" x2="56.3%" y2="0%"><stop offset="14.444444444444446%" stop-color="#9c5e00" stop-opacity="1"></stop><stop offset="85.55555555555554%" stop-color="#bb7816" stop-opacity="1"></stop></linearGradient></defs><g transform="translate(960, 540)"><path d="M-486 0C-484 -67.2 -481.9 -134.5 -449 -186C-416.1 -237.5 -352.3 -273.2 -298.4 -298.4C-244.5 -323.6 -200.4 -338.2 -152.3 -367.7C-104.2 -397.2 -52.1 -441.6 0 -486L0 0Z" fill="#ab6b0b"></path><path d="M-364.5 0C-363 -50.4 -361.4 -100.9 -336.8 -139.5C-312.1 -178.1 -264.2 -204.9 -223.8 -223.8C-183.4 -242.7 -150.3 -253.6 -114.2 -275.8C-78.2 -297.9 -39.1 -331.2 0 -364.5L0 0Z" fill="#cb8520"></path><path d="M-243 0C-242 -33.6 -241 -67.2 -224.5 -93C-208 -118.7 -176.2 -136.6 -149.2 -149.2C-122.2 -161.8 -100.2 -169.1 -76.2 -183.9C-52.1 -198.6 -26.1 -220.8 0 -243L0 0Z" fill="#eba033"></path><path d="M-121.5 0C-121 -16.8 -120.5 -33.6 -112.3 -46.5C-104 -59.4 -88.1 -68.3 -74.6 -74.6C-61.1 -80.9 -50.1 -84.5 -38.1 -91.9C-26.1 -99.3 -13 -110.4 0 -121.5L0 0Z" fill="#fbae3c"></path></g><g transform="translate(0, 0)"><path d="M486 0C437.9 46.4 389.8 92.8 373.2 154.6C356.7 216.4 371.6 293.5 343.7 343.7C315.7 393.8 245 416.9 180.6 436.1C116.2 455.3 58.1 470.6 0 486L0 0Z" fill="#ab6b0b"></path><path d="M364.5 0C328.4 34.8 292.4 69.6 279.9 116C267.5 162.3 278.7 220.2 257.7 257.7C236.8 295.3 183.8 312.6 135.5 327.1C87.2 341.5 43.6 353 0 364.5L0 0Z" fill="#cb8520"></path><path d="M243 0C219 23.2 194.9 46.4 186.6 77.3C178.3 108.2 185.8 146.8 171.8 171.8C157.9 196.9 122.5 208.4 90.3 218C58.1 227.6 29.1 235.3 0 243L0 0Z" fill="#eba033"></path><path d="M121.5 0C109.5 11.6 97.5 23.2 93.3 38.7C89.2 54.1 92.9 73.4 85.9 85.9C78.9 98.4 61.3 104.2 45.2 109C29.1 113.8 14.5 117.7 0 121.5L0 0Z" fill="#fbae3c"></path></g></svg>