<svg xmlns="http://www.w3.org/2000/svg" version="1.1" xmlns:xlink="http://www.w3.org/1999/xlink" xmlns:svgjs="http://svgjs.dev/svgjs" width="1438" height="235" preserveAspectRatio="none" viewBox="0 0 1438 235"><g mask="url(&quot;#SvgjsMask1886&quot;)" fill="none"><rect width="1438" height="235" x="0" y="0" fill="url(&quot;#SvgjsLinearGradient1887&quot;)"></rect><path d="M45 235L280 0L509.5 0L274.5 235z" fill="url(&quot;#SvgjsLinearGradient1888&quot;)"></path><path d="M250.27 235L485.27 0L791.27 0L556.27 235z" fill="url(&quot;#SvgjsLinearGradient1888&quot;)"></path><path d="M487.54 235L722.54 0L962.54 0L727.54 235z" fill="url(&quot;#SvgjsLinearGradient1888&quot;)"></path><path d="M750.8100000000001 235L985.8100000000001 0L1293.31 0L1058.31 235z" fill="url(&quot;#SvgjsLinearGradient1888&quot;)"></path><path d="M1431 235L1196 0L1140.5 0L1375.5 235z" fill="url(&quot;#SvgjsLinearGradient1889&quot;)"></path><path d="M1185.73 235L950.73 0L884.73 0L1119.73 235z" fill="url(&quot;#SvgjsLinearGradient1889&quot;)"></path><path d="M938.46 235L703.46 0L653.96 0L888.96 235z" fill="url(&quot;#SvgjsLinearGradient1889&quot;)"></path><path d="M711.1899999999999 235L476.18999999999994 0L440.18999999999994 0L675.1899999999999 235z" fill="url(&quot;#SvgjsLinearGradient1889&quot;)"></path><path d="M1317.5703280530809 235L1438 114.57032805308096L1438 235z" fill="url(&quot;#SvgjsLinearGradient1888&quot;)"></path><path d="M0 235L120.42967194691904 235L 0 114.57032805308096z" fill="url(&quot;#SvgjsLinearGradient1889&quot;)"></path></g><defs><mask id="SvgjsMask1886"><rect width="1438" height="235" fill="#ffffff"></rect></mask><linearGradient x1="50%" y1="0%" x2="50%" y2="100%" gradientUnits="userSpaceOnUse" id="SvgjsLinearGradient1887"><stop stop-color="#0e2a47" offset="0"></stop><stop stop-color="rgba(216, 161, 75, 1)" offset="0"></stop></linearGradient><linearGradient x1="0%" y1="100%" x2="100%" y2="0%" id="SvgjsLinearGradient1888"><stop stop-color="rgba(15, 70, 185, 0.2)" offset="0"></stop><stop stop-opacity="0" stop-color="rgba(15, 70, 185, 0.2)" offset="0.66"></stop></linearGradient><linearGradient x1="100%" y1="100%" x2="0%" y2="0%" id="SvgjsLinearGradient1889"><stop stop-color="rgba(15, 70, 185, 0.2)" offset="0"></stop><stop stop-opacity="0" stop-color="rgba(15, 70, 185, 0.2)" offset="0.66"></stop></linearGradient></defs></svg>