<svg xmlns="http://www.w3.org/2000/svg" version="1.1" xmlns:xlink="http://www.w3.org/1999/xlink" xmlns:svgjs="http://svgjs.dev/svgjs" width="1440" height="560" preserveAspectRatio="none" viewBox="0 0 1440 560"><g mask="url(&quot;#SvgjsMask1127&quot;)" fill="none"><rect width="1440" height="560" x="0" y="0" fill="rgba(220, 174, 87, 1)"></rect><path d="M0,340.704C62.545,333.687,107.713,283.264,164.179,255.467C229.888,223.121,316.057,223.27,359.031,163.964C403.385,102.753,408.47,17.218,389.915,-56.061C372.096,-126.436,312.262,-174.841,260.385,-225.625C212.457,-272.543,163.886,-320.112,99.84,-340.023C35.214,-360.115,-32.263,-348.242,-99.062,-337.374C-174.636,-325.078,-269.556,-334.518,-314.59,-272.594C-360.17,-209.919,-318.395,-122.048,-311.812,-44.832C-306.733,14.738,-300.64,71.802,-280.431,128.069C-258.563,188.954,-241.244,256.082,-189.694,295.169C-136.806,335.271,-65.958,348.104,0,340.704" fill="#a57822"></path><path d="M1440 1145.6860000000001C1547.741 1144.9389999999999 1610.473 1024.342 1703.6770000000001 970.289 1803.038 912.6659999999999 1941.849 913.972 2004.993 818.024 2069.267 720.359 2053.507 589.667 2029.466 475.248 2006.404 365.48900000000003 1946.2559999999999 269.726 1872.108 185.577 1798.442 101.976 1709.151 36.797000000000025 1605.997-5.33299999999997 1494.179-51.00199999999995 1369.218-108.57899999999995 1256.1970000000001-65.97400000000005 1143.8220000000001-23.611999999999966 1099.781 108.09899999999999 1035.682 209.656 980.88 296.483 931.211 383.39 909.27 483.693 885.98 590.165 853.891 708.116 905.669 804.021 957.001 899.1 1082.93 915.755 1173.962 973.963 1264.724 1031.999 1332.272 1146.433 1440 1145.6860000000001" fill="#efd9b0"></path></g><defs><mask id="SvgjsMask1127"><rect width="1440" height="560" fill="#ffffff"></rect></mask></defs></svg>